<svg version="1.1" id="Layer_1" xmlns="http://www.w3.org/2000/svg" xmlns:xlink="http://www.w3.org/1999/xlink" x="0px" y="0px"
	 width="100%" viewBox="0 0 1024 208" enable-background="new 0 0 1024 208" xml:space="preserve">
<path fill="#000000" opacity="1.000000" stroke="none" 
	d="
M511.030701,93.792343 
	C524.168884,93.792213 536.814697,94.242378 549.441589,93.034180 
	C555.100586,92.492699 560.744324,93.456894 566.347595,94.124207 
	C571.717590,94.763741 575.182556,97.899651 575.889038,103.443947 
	C579.443665,131.341370 566.946777,158.691391 539.616394,169.550537 
	C517.674927,178.268509 486.308594,174.509567 468.029205,151.348785 
	C459.297302,140.285095 454.512299,126.983170 451.074524,113.364166 
	C449.856842,108.540253 453.467377,102.075157 457.910431,99.362778 
	C463.668823,95.847435 470.159668,94.961678 476.622894,94.849258 
	C487.934875,94.652512 499.241882,94.511299 511.030701,93.792343 
M522.501648,111.302711 
	C510.190125,110.591721 497.943298,112.674408 485.633911,112.154892 
	C482.810272,112.035728 479.938263,111.796242 477.162567,112.166840 
	C474.401489,112.535484 471.130402,113.273956 471.895691,117.249199 
	C474.658905,131.602448 480.909515,144.001099 493.552917,152.085251 
	C497.475464,154.593323 501.877594,156.940414 506.900299,157.004303 
	C521.535339,157.190445 535.012756,153.841736 545.898743,143.452652 
	C554.196716,135.533417 559.572144,126.361107 557.044006,114.157570 
	C556.503723,111.549721 555.719971,110.536354 552.874084,110.648064 
	C543.089966,111.032158 533.293762,111.110931 522.501648,111.302711 
z"/>
<path fill="#000000" opacity="1.000000" stroke="none" 
	d="
M319.919769,106.154251 
	C295.145294,116.016609 269.473785,100.249084 268.884064,74.746307 
	C268.551300,60.356972 275.258118,49.329727 288.148407,42.773399 
	C301.367981,36.049587 314.401672,37.243610 326.274200,46.097473 
	C347.212738,61.712238 344.000366,92.762627 319.919769,106.154251 
z"/>
<path fill="#000000" opacity="1.000000" stroke="none" 
	d="
M682.379517,88.487473 
	C667.939758,66.997131 679.924133,39.973892 703.641724,34.233044 
	C722.577515,29.649637 742.453796,42.296436 746.326965,61.543789 
	C750.241028,80.993988 737.202820,100.237770 717.903442,103.328957 
	C703.210205,105.682388 691.459473,100.677902 682.379517,88.487473 
z"/>
</svg>