<svg version="1.1" id="Layer_1" xmlns="http://www.w3.org/2000/svg" xmlns:xlink="http://www.w3.org/1999/xlink" x="0px" y="0px"
	 width="100%" viewBox="0 0 1024 1024" enable-background="new 0 0 1024 1024" xml:space="preserve">
<path fill="#000000" opacity="1.000000" stroke="none" 
	d="
M778.102417,623.956421 
	C789.013550,620.104187 799.784058,617.379028 810.984375,616.763428 
	C813.447266,616.627991 814.881226,615.477722 816.339966,613.709778 
	C818.665344,610.891602 821.163696,608.197510 823.770935,605.636353 
	C825.947937,603.497864 827.523010,602.724182 829.845215,606.390930 
	C832.121582,609.985229 835.628357,612.636108 835.468262,617.543762 
	C835.399597,619.648376 837.711304,619.721985 839.261536,620.112305 
	C847.141785,622.097290 855.076477,621.807312 863.034973,620.602478 
	C864.922119,620.316895 865.773376,618.857117 866.885376,617.653381 
	C870.518921,613.720154 874.260376,609.925598 879.410461,607.950623 
	C882.745300,606.671814 886.131836,606.400818 888.652466,609.284424 
	C891.233765,612.237427 890.369568,615.600342 888.366211,618.531372 
	C883.227966,626.048767 876.574829,631.798218 867.555298,633.875977 
	C863.833008,634.733459 863.089966,636.633423 863.187866,639.809082 
	C863.292480,643.200378 865.068848,645.058472 868.293396,645.545654 
	C871.849060,646.082947 875.302307,645.192200 878.617126,644.139893 
	C894.851868,638.986145 908.926941,629.671692 923.070862,620.567627 
	C926.235657,618.530579 926.473389,614.192017 928.560120,611.193420 
	C929.315613,610.107605 929.769714,608.816833 930.467285,607.684875 
	C931.451965,606.086914 932.715942,604.295898 934.790344,605.277100 
	C937.268188,606.449219 936.282349,608.630432 935.424805,610.464355 
	C930.764099,620.432373 926.332214,630.480957 923.889771,641.280334 
	C923.453857,643.207825 922.751465,645.108154 924.179504,647.341675 
	C927.537781,646.592834 929.939392,644.261902 932.338562,642.081299 
	C942.241150,633.080750 950.431274,622.544189 958.925049,612.276245 
	C962.000000,608.558960 965.283630,605.004150 968.620789,601.517578 
	C970.787781,599.253540 973.482239,597.685242 976.683105,599.171204 
	C979.628967,600.538818 980.205750,603.396851 980.216064,606.360229 
	C980.250793,616.323669 976.924500,625.635010 974.648682,635.153870 
	C974.239197,636.866638 972.961548,638.455505 973.819397,640.899048 
	C981.862366,634.984192 990.138550,629.786682 998.786316,625.212280 
	C1002.316406,623.345032 1005.869385,621.490784 1009.541199,619.935669 
	C1011.159607,619.250183 1013.513916,617.384399 1014.761292,620.004944 
	C1015.809814,622.207764 1013.225037,623.007141 1011.790222,623.914673 
	C1006.159119,627.476196 1000.522522,631.040222 994.751587,634.366821 
	C986.787231,638.957825 979.558411,644.596008 972.052673,649.843079 
	C968.735474,652.162048 967.101318,655.624084 965.533142,659.124817 
	C956.914429,678.365356 946.413269,696.482483 933.214539,712.959473 
	C925.054321,723.146362 915.943665,732.353088 904.822815,739.394836 
	C901.828247,741.290894 898.680542,742.795105 895.207520,743.416260 
	C887.913147,744.720886 883.156799,739.866211 884.598633,732.605652 
	C886.839172,721.323853 894.047668,712.890320 901.187012,704.533508 
	C916.729004,686.341309 934.753967,670.692627 953.514526,656.035706 
	C961.093933,650.114197 965.957092,643.361328 968.409302,634.461487 
	C970.915405,625.366089 973.790955,616.322632 973.772522,605.191467 
	C970.788879,608.340759 968.576843,610.457703 966.614014,612.784668 
	C957.274719,623.856201 948.447693,635.374817 938.060181,645.527771 
	C934.963745,648.554260 931.798462,651.544922 927.691528,653.223328 
	C921.289612,655.839722 916.631958,652.552246 917.145752,645.613220 
	C917.577271,639.786255 919.045898,634.153931 921.675781,627.594604 
	C914.204651,633.144226 906.963135,636.996826 899.832275,641.042725 
	C892.249146,645.345215 884.262390,648.596741 875.780579,650.607971 
	C862.355347,653.791443 854.770142,645.869019 858.688660,632.768921 
	C859.351685,630.552246 860.087891,628.357483 860.907471,625.784790 
	C852.425415,626.369934 844.209534,627.031555 836.034668,625.431152 
	C833.527405,624.940369 832.575500,626.895752 831.757141,628.807495 
	C829.434631,634.233521 826.022583,638.939331 822.112549,643.308350 
	C819.872559,645.811157 817.388428,648.035889 814.273865,649.393372 
	C808.956360,651.711060 805.017822,649.224243 804.626709,643.421997 
	C804.328369,638.995728 805.252563,634.824646 807.001465,630.790833 
	C808.184265,628.062500 809.324707,625.315735 810.638306,622.212891 
	C806.712158,621.567810 803.440308,622.842346 800.228333,623.693359 
	C787.010193,627.195374 774.207581,631.912292 761.700012,637.437805 
	C759.655273,638.341187 758.044983,639.697266 756.706421,641.460754 
	C743.490540,658.871338 729.047913,675.191223 713.403503,690.464600 
	C706.691772,697.017212 699.463867,702.848633 691.380005,707.600037 
	C688.208679,709.464050 684.870422,710.920227 681.200684,711.581848 
	C673.760376,712.923279 669.729431,708.672119 671.521667,701.180176 
	C673.380188,693.410767 678.525574,687.620483 683.695435,681.985657 
	C701.646118,662.420349 723.855469,648.723755 747.144775,636.603577 
	C751.008606,634.592834 754.818359,632.827454 757.502502,629.111633 
	C773.031860,607.613464 787.966614,585.765198 798.611816,561.312439 
	C800.949341,555.943054 802.753479,550.419983 802.811157,544.478638 
	C802.903137,534.999268 797.052979,530.029114 787.628296,531.639282 
	C778.354004,533.223633 769.663757,536.644531 761.287842,540.745728 
	C742.005066,550.187317 725.235779,562.825562 712.674500,580.500977 
	C707.956970,587.139282 704.953613,594.446960 705.207642,602.816956 
	C705.266479,604.755676 705.639282,607.369080 702.895813,607.567017 
	C700.104309,607.768433 699.564331,605.182800 699.281982,603.018066 
	C698.186279,594.618103 700.966248,586.975098 705.541992,580.392395 
	C725.061829,552.311218 751.512634,534.106140 784.897095,526.180298 
	C787.864502,525.475830 790.884277,525.494019 793.849731,525.819031 
	C805.372009,527.082031 811.272339,535.988586 808.847351,548.238586 
	C805.524414,565.024963 797.733887,579.902649 788.899231,594.277161 
	C783.232178,603.497742 777.132812,612.452209 771.256165,621.544617 
	C770.375610,622.906921 769.032593,624.047668 768.927856,626.172729 
	C772.291382,627.188171 774.823547,624.702759 778.102417,623.956421 
M925.252563,712.760132 
	C941.774963,691.994995 954.849182,670.481262 955.843872,662.352966 
	C948.448547,668.085632 941.040649,673.700134 934.317627,680.154419 
	C927.600769,686.602844 920.650879,692.819763 914.134277,699.462952 
	C905.631409,708.131165 897.453674,717.148254 892.338806,728.363831 
	C891.175110,730.915527 888.782227,734.244934 891.490967,736.647888 
	C894.108643,738.970032 897.180420,736.395874 899.668152,735.019531 
	C909.546387,729.554565 917.687805,722.009338 925.252563,712.760132 
M703.410156,671.927124 
	C693.320862,681.336426 681.980408,689.760925 677.336609,703.908997 
	C688.315857,706.142090 734.907837,664.869812 742.668701,646.779846 
	C728.649048,653.435120 715.867249,661.767700 703.410156,671.927124 
M820.561584,617.976501 
	C814.532654,624.126831 812.290894,632.088989 809.996765,640.029724 
	C809.618958,641.337646 809.150635,642.711426 810.490662,643.667297 
	C812.031982,644.766785 813.329956,643.709167 814.533936,642.836365 
	C818.374084,640.052307 821.099243,636.294067 823.536865,632.309875 
	C828.597290,624.038757 828.584656,624.031006 820.561584,617.976501 
M867.576782,626.901001 
	C872.839478,627.589600 882.467773,619.879639 883.853333,613.867371 
	C878.783447,613.293762 874.328369,616.762329 867.576782,626.901001 
z"/>
<path fill="#000000" opacity="1.000000" stroke="none" 
	d="
M688.943481,470.188171 
	C687.936096,468.942657 687.485352,467.459747 685.702881,467.789246 
	C684.038452,469.196747 684.501404,471.194672 684.610901,472.906036 
	C685.568176,487.879120 685.181519,502.868256 685.260071,517.850647 
	C685.293457,524.219055 682.410950,527.392334 676.987488,527.288757 
	C671.560303,527.185120 668.781677,523.988403 668.773743,517.670776 
	C668.744934,494.855469 668.733337,472.040131 668.752014,449.224792 
	C668.757629,442.308167 670.890015,439.176483 676.526611,437.492950 
	C681.835815,435.907166 685.654358,437.637421 689.341553,443.410278 
	C700.185425,460.388245 710.990356,477.391174 721.859131,494.353149 
	C722.781189,495.792206 723.307556,497.833893 726.175537,497.881927 
	C727.121094,493.356293 726.853271,488.725250 726.488098,484.198486 
	C725.455200,471.391479 725.811768,458.570038 725.719727,445.754181 
	C725.681091,440.365936 728.969910,436.908020 733.733704,436.881622 
	C738.826050,436.853424 742.214844,440.308502 742.225037,445.860992 
	C742.267822,469.175812 742.190674,492.490906 742.268005,515.805542 
	C742.285217,520.991699 740.685608,525.001465 735.549500,526.838684 
	C730.790039,528.541199 725.312683,526.517151 722.127075,521.699585 
	C715.882935,512.256653 709.811523,502.699219 703.686340,493.177826 
	C698.822510,485.617157 693.985046,478.039490 688.943481,470.188171 
z"/>
<path fill="#000000" opacity="1.000000" stroke="none" 
	d="
M559.720886,481.994263 
	C559.452454,469.844635 559.015991,458.194122 558.975037,446.542236 
	C558.946716,438.488800 565.577087,434.577423 572.140625,438.319031 
	C575.544250,440.259308 575.509094,443.377502 575.504517,446.565002 
	C575.480408,463.388550 575.432556,480.212097 575.399780,497.035645 
	C575.387390,503.365448 575.414551,509.695404 575.385132,516.025146 
	C575.355103,522.477600 573.482422,525.534180 568.786743,526.925659 
	C564.122559,528.307800 558.768433,526.346375 555.765076,521.807678 
	C549.792297,512.781738 543.971741,503.654968 538.087891,494.570129 
	C532.928162,486.603333 527.777710,478.630554 522.597168,470.677338 
	C521.807556,469.465149 521.176880,468.017517 519.553833,467.666077 
	C517.637695,468.927460 518.370544,470.757080 518.372131,472.291077 
	C518.388428,487.614563 518.471863,502.937958 518.554443,518.261353 
	C518.585754,524.068726 516.133118,527.021851 510.968048,527.311829 
	C505.782867,527.602905 502.058075,524.450623 502.019531,518.806213 
	C501.858154,495.154144 501.837463,471.499603 502.015961,447.847900 
	C502.060760,441.908691 505.228333,438.473206 510.788116,437.228699 
	C516.059387,436.048767 519.705750,438.503326 522.467285,442.841156 
	C533.467285,460.119904 544.511902,477.370331 555.555725,494.621185 
	C556.332397,495.834442 556.774109,497.382996 559.721558,498.414032 
	C559.721558,492.769775 559.721558,487.631287 559.720886,481.994263 
z"/>
<path fill="#000000" opacity="1.000000" stroke="none" 
	d="
M157.875610,497.831726 
	C147.158264,465.432434 169.029099,434.732666 202.056915,435.759247 
	C226.691147,436.524933 243.798035,454.418976 245.558258,476.346985 
	C247.081329,495.320587 240.672165,510.659546 224.628998,520.687683 
	C208.748077,530.614380 191.976028,529.982300 175.933258,520.314758 
	C167.420792,515.185059 161.685776,507.436157 157.875610,497.831726 
M196.963943,512.692200 
	C203.930023,513.274963 210.489624,512.445374 216.355606,508.084839 
	C227.019379,500.157837 229.903519,489.172729 228.682129,476.741821 
	C227.637573,466.110901 222.737015,457.452576 212.616119,453.255829 
	C202.934372,449.241180 192.814957,449.301392 184.173325,455.974976 
	C174.049820,463.792969 170.872055,474.816833 172.895569,487.133148 
	C175.084854,500.458405 182.411865,509.552216 196.963943,512.692200 
z"/>
<path fill="#000000" opacity="1.000000" stroke="none" 
	d="
M334.720032,485.999939 
	C334.713776,472.676117 334.680969,459.852264 334.713257,447.028534 
	C334.729889,440.411926 337.734985,436.805511 343.033173,436.852966 
	C348.282898,436.899994 351.240540,440.548065 351.302856,447.202148 
	C351.360535,453.363739 351.480835,459.531372 351.277954,465.686584 
	C351.126190,470.290741 353.303589,471.958252 357.599243,471.930817 
	C367.258240,471.869080 376.918396,471.862640 386.577118,471.944733 
	C390.787720,471.980499 392.704498,469.941650 392.721832,465.878693 
	C392.750275,459.217102 392.694855,452.554504 392.791687,445.894073 
	C392.876190,440.082153 395.987854,436.812103 401.149292,436.881744 
	C405.871277,436.945465 409.247864,440.412445 409.266144,445.814178 
	C409.348511,470.129150 409.345428,494.444733 409.264618,518.759705 
	C409.246979,524.064636 405.866119,527.305176 400.908508,527.324341 
	C395.901031,527.343689 392.867828,524.212341 392.807098,518.688171 
	C392.719238,510.695038 392.843475,502.699463 392.742889,494.706573 
	C392.664764,488.499664 391.226715,487.151520 384.975922,487.135101 
	C375.816162,487.111053 366.655060,487.241852 357.496948,487.120483 
	C353.025208,487.061218 351.178955,488.960724 351.267273,493.423950 
	C351.425385,501.414825 351.355347,509.411530 351.291168,517.405090 
	C351.238922,523.909851 348.121735,527.447510 342.726990,527.327393 
	C337.450958,527.209961 334.758148,523.961182 334.730743,517.477112 
	C334.687134,507.151550 334.719971,496.825714 334.720032,485.999939 
z"/>
<path fill="#000000" opacity="1.000000" stroke="none" 
	d="
M832.750916,450.029877 
	C830.101562,444.565369 831.076782,440.800598 835.512573,438.295807 
	C840.035461,435.741852 843.855530,436.722870 846.936340,441.536346 
	C852.684082,450.516876 858.277039,459.596344 863.985779,468.602051 
	C865.115723,470.384644 865.808716,472.574951 868.005127,473.542633 
	C870.279541,473.352661 870.803955,471.344696 871.731018,469.880829 
	C877.346069,461.013794 882.894104,452.104309 888.458374,443.205109 
	C892.416870,436.874023 896.619812,435.343750 901.443726,438.491302 
	C906.190979,441.588837 906.473755,446.043762 902.282776,452.360962 
	C895.006775,463.328400 887.770874,474.323242 880.397339,485.224854 
	C877.589111,489.376862 876.129700,493.745941 876.279297,498.806488 
	C876.476135,505.466431 876.395447,512.137817 876.294250,518.802246 
	C876.211975,524.223206 873.489319,527.118896 868.586365,527.314758 
	C863.688660,527.510376 860.472412,524.876648 860.179077,519.472351 
	C859.782166,512.159973 859.879883,504.814606 859.951294,497.485199 
	C859.995239,492.972351 858.681458,489.072815 856.157898,485.335510 
	C848.326599,473.737610 840.669983,462.021759 832.750916,450.029877 
z"/>
<path fill="#000000" opacity="1.000000" stroke="none" 
	d="
M32.913612,526.514160 
	C30.036583,525.424194 27.401699,524.721252 25.147099,523.379333 
	C21.114655,520.979248 20.019350,516.016663 22.283016,512.048218 
	C24.446051,508.256195 28.122185,507.165314 32.565880,509.007111 
	C33.180614,509.261871 33.770161,509.576843 34.381420,509.840637 
	C44.251213,514.100281 49.625278,510.743469 49.677292,500.093384 
	C49.764328,482.273499 49.680359,464.452789 49.732323,446.632629 
	C49.748798,440.982147 52.031311,437.889038 56.531765,437.000885 
	C61.777412,435.965637 66.246193,439.373169 66.270432,444.921021 
	C66.356262,464.572418 66.586868,484.232788 66.113075,503.874084 
	C65.717575,520.270020 51.284985,529.958740 32.913612,526.514160 
z"/>
<path fill="#000000" opacity="1.000000" stroke="none" 
	d="
M649.449890,618.449951 
	C649.953064,622.157776 647.256897,622.340576 645.346497,621.958557 
	C639.963196,620.881836 634.755981,622.712585 629.454224,622.400818 
	C625.774292,622.184326 624.081360,624.232117 623.490173,627.662476 
	C622.505005,633.379700 621.335999,639.065430 620.362000,644.784424 
	C620.017151,646.809509 619.964783,649.165405 617.259583,649.015869 
	C614.182373,648.845703 614.471069,646.154358 614.532349,644.055725 
	C614.688293,638.718811 615.915283,633.539368 617.181091,628.379639 
	C617.537231,626.927979 618.056641,625.511047 616.884888,623.862549 
	C610.771912,624.454041 604.502930,624.679688 598.465210,626.547668 
	C596.422974,627.179565 594.359680,627.821533 593.531677,625.150085 
	C592.711731,622.504883 594.971680,621.619751 596.808594,620.994629 
	C602.492920,619.060486 608.450745,618.285522 614.383240,617.809204 
	C618.104553,617.510315 620.063904,616.353271 620.873657,612.488770 
	C621.822876,607.959045 623.451660,603.557861 624.984131,599.170288 
	C625.703186,597.111633 626.969971,594.789185 629.619385,595.797729 
	C632.203186,596.781250 630.914917,599.062256 630.432495,600.972290 
	C629.183533,605.917664 626.942871,610.641602 626.872009,616.203430 
	C634.421509,616.785400 642.196533,613.765869 649.449890,618.449951 
z"/>
</svg>